<?xml version="1.0" standalone="no"?>
<!DOCTYPE svg PUBLIC "-//W3C//DTD SVG 1.1//EN" "http://www.w3.org/Graphics/SVG/1.1/DTD/svg11.dtd" >
<svg xmlns="http://www.w3.org/2000/svg">
<metadata>Generated by IcoMoon</metadata>
<defs>
<font id="planIcons" horiz-adv-x="1024">
<font-face units-per-em="1024" ascent="960" descent="-64" />
<missing-glyph horiz-adv-x="1024" />
<glyph unicode="&#x20;" horiz-adv-x="512" d="" />
<glyph unicode="&#xe900;" glyph-name="add" d="M832 960h-640c-108.8 0-192-83.2-192-192v-640c0-108.8 83.2-192 192-192h640c108.8 0 192 83.2 192 192v640c0 108.8-83.2 192-192 192zM832 384h-256v-256h-128v256h-256v128h256v256h128v-256h256v-128z" />
<glyph unicode="&#xe901;" glyph-name="remove" d="M832 960h-640c-108.8 0-192-83.2-192-192v-640c0-108.8 83.2-192 192-192h640c108.8 0 192 83.2 192 192v640c0 108.8-83.2 192-192 192zM832 384h-640v128h640v-128z" />
<glyph unicode="&#xe902;" glyph-name="delete" d="M832 960h-640c-108.8 0-192-83.2-192-192v-640c0-108.8 83.2-192 192-192h640c108.8 0 192 83.2 192 192v640c0 108.8-83.2 192-192 192zM812.8 236.8l-89.6-89.6-211.2 211.2-211.2-211.2-89.6 89.6 211.2 211.2-211.2 211.2 89.6 89.6 211.2-211.2 211.2 211.2 89.6-89.6-211.2-211.2 211.2-211.2z" />
<glyph unicode="&#xe903;" glyph-name="confirm" d="M832 960h-640c-108.8 0-192-83.2-192-192v-640c0-108.8 83.2-192 192-192h640c108.8 0 192 83.2 192 192v640c0 108.8-83.2 192-192 192zM448 166.4l-236.8 236.8 89.6 89.6 147.2-147.2 339.2 339.2 89.6-89.6-428.8-428.8z" />
<glyph unicode="&#xe904;" glyph-name="left" d="M832 960h-640c-108.8 0-192-83.2-192-192v-640c0-108.8 83.2-192 192-192h640c108.8 0 192 83.2 192 192v640c0 108.8-83.2 192-192 192zM768 384h-256v-192l-320 256 320 256v-192h256v-128z" />
<glyph unicode="&#xe905;" glyph-name="right" d="M832 960h-640c-108.8 0-192-83.2-192-192v-640c0-108.8 83.2-192 192-192h640c108.8 0 192 83.2 192 192v640c0 108.8-83.2 192-192 192zM512 192v192h-256v128h256v192l320-256-320-256z" />
<glyph unicode="&#xe906;" glyph-name="up" d="M832 960h-640c-108.8 0-192-83.2-192-192v-640c0-108.8 83.2-192 192-192h640c108.8 0 192 83.2 192 192v640c0 108.8-83.2 192-192 192zM576 448v-256h-128v256h-192l256 320 256-320h-192z" />
<glyph unicode="&#xe907;" glyph-name="down" d="M832 960h-640c-108.8 0-192-83.2-192-192v-640c0-108.8 83.2-192 192-192h640c108.8 0 192 83.2 192 192v640c0 108.8-83.2 192-192 192zM512 128l-256 320h192v256h128v-256h192l-256-320z" />
<glyph unicode="&#xe908;" glyph-name="login" d="M396.8-70.4l-396.8 83.2v870.4l396.8 76.8 198.4-128h428.8v-768h-428.8l-198.4-134.4zM128 115.2l243.2-51.2 185.6 128h339.2v512h-339.2l-185.6 121.6-243.2-44.8v-665.6zM64 832h320v-768h-320v768zM640 646.4l198.4-198.4-198.4-198.4zM448 512h192v-128h-192v128z" />
<glyph unicode="&#xe909;" glyph-name="logout" d="M396.8-70.4l-396.8 83.2v870.4l396.8 76.8 198.4-128h428.8v-768h-428.8l-198.4-134.4zM128 115.2l243.2-51.2 185.6 128h339.2v512h-339.2l-185.6 121.6-243.2-44.8v-665.6zM64 832h320v-768h-320v768zM646.4 249.6l-198.4 198.4 198.4 198.4zM646.4 512h192v-128h-192v128z" />
<glyph unicode="&#xe90a;" glyph-name="big" d="M860.459 868.872l76.932-76.932-769.325-769.325-76.932 76.932 769.325 769.325zM384-64h-384v384h128v-256h256zM1024 576h-128v256h-256v128h384zM163.541 868.872l769.325-769.325-76.932-76.932-769.325 769.325 76.932 76.932zM128 576h-128v384h384v-128h-256zM1024-64h-384v128h256v256h128z" />
<glyph unicode="&#xe90d;" glyph-name="doc" d="M0 960v-1024h960v729.6l-294.4 294.4h-665.6zM832 64h-704v768h448v-256h256v-512zM256 512h448v-128h-448v128zM256 704h192v-128h-192v128zM256 320h448v-128h-448v128z" />
<glyph unicode="&#xe90e;" glyph-name="mail" d="M960-64h-896c-38.4 0-64 25.6-64 64v768c0 38.4 25.6 64 64 64h896c38.4 0 64-25.6 64-64v-768c0-38.4-25.6-64-64-64zM128 64h768v640h-768v-640zM512 262.4c-12.8 0-25.6 6.4-38.4 12.8l-448 448 76.8 76.8 409.6-403.2c83.2 76.8 275.2 281.6 409.6 409.6l76.8-76.8c-441.6-448-454.4-454.4-460.8-454.4-6.4-6.4-19.2-12.8-25.6-12.8z" />
<glyph unicode="&#xe90f;" glyph-name="contact" d="M896 960h-768c-70.4 0-128-57.6-128-128v-768c0-70.4 57.6-128 128-128h768c70.4 0 128 57.6 128 128v768c0 70.4-57.6 128-128 128zM512 832c108.8 0 192-83.2 192-192s-83.2-192-192-192-192 83.2-192 192 83.2 192 192 192zM128 64c0 179.2 140.8 320 320 320h128c179.2 0 320-140.8 320-320h-768z" />
<glyph unicode="&#xe910;" glyph-name="delete-2" d="M704 896h-384v-64h-192c-35.328 0-64-28.672-64-64v-64h896v64c0 35.328-28.672 64-64 64h-192v64zM128 576v-576c0-35.328 28.672-64 64-64h640c35.328 0 64 28.672 64 64v640h-768v-64zM256 64v448h128v-448h-128zM448 64v448h128v-448h-128zM768 64h-128v448h128v-448z" />
<glyph unicode="&#xe911;" glyph-name="confirm-2" d="M896 704v64h-64v64h-128v-64h-64v-64h-64v-64h-64v-64h-64v-64h-64v-64h-64v64h-64v64h-128v-64h-64v-64h-64v-128h64v-64h64v-64h64v-64h64v-64h64v-64h64v64h64v64h64v64h64v64h64v64h64v64h64v64h64v64h64v64h64v128z" />
<glyph unicode="&#xe912;" glyph-name="general-09" d="M768 448v64h64v64h64v128h-64v64h-64v64h-128v-64h-64v-64h-64v-64h-64v64h-64v64h-64v64h-128v-64h-64v-64h-64v-128h64v-64h64v-64h64v-64h-64v-64h-64v-64h-64v-128h64v-64h64v-64h128v64h64v64h64v64h64v-64h64v-64h64v-64h192v64h64v192h-64v64h-64v64h-64v64z" />
<glyph unicode="&#xe913;" glyph-name="mail-2" d="M0 704v-704c0-35.392 28.672-64 64-64h896c35.328 0 64 28.608 64 64v704c0 35.392-28.672 64-64 64h-896c-35.328 0-64-28.608-64-64zM896 576l-341.44-304.448c-24.256-21.696-60.928-21.696-85.184 0l-341.376 304.448v64h103.616c15.68 0 30.848-5.76 42.56-16.192l196.8-175.232c24.384-21.76 61.248-21.632 85.44 0.32l193.28 174.592c11.776 10.624 27.072 16.512 42.944 16.512h103.36v-64z" />
<glyph unicode="&#xe914;" glyph-name="group" d="M704 640c0-106.039-85.961-192-192-192s-192 85.961-192 192c0 106.039 85.961 192 192 192s192-85.961 192-192zM832 256c0 0 64-64 64-192v-128h128v128c0 106.048-85.952 192-192 192zM0 64v-128h128v128c0 128 64 192 64 192-106.048 0-192-85.952-192-192zM1024 448c0-70.692-57.308-128-128-128s-128 57.308-128 128c0 70.692 57.308 128 128 128s128-57.308 128-128zM256 448c0-70.692-57.308-128-128-128s-128 57.308-128 128c0 70.692 57.308 128 128 128s128-57.308 128-128zM514.56 320h-5.12c-140.032 0-253.44-113.472-253.44-253.44v-130.56h512v130.56c0 139.968-113.472 253.44-253.44 253.44z" />
<glyph unicode="&#xe915;" glyph-name="settings" d="M960 576h-92.8c-5.632 0-12.416 28.224-20.416 44.16l65.728 63.36c10.176 10.176 15.936 22.848 15.936 37.312 0 14.4-5.76 27.648-15.936 37.824l-90.496 90.176c-10.624 10.624-24.576 15.808-38.528 15.808-13.888 0-27.84-5.376-38.464-16l-60.864-65.856c-15.936 8-44.16 14.784-44.16 20.416v92.8c0 30.080-33.92 64-64 64h-128c-30.080 0-64-33.92-64-64v-92.8c0-5.632-28.224-12.416-44.16-20.416l-63.36 65.728c-10.56 10.624-23.296 15.936-37.184 15.936-13.952 0-27.264-5.312-37.888-15.936l-90.24-90.496c-10.176-10.176-15.808-24.064-15.808-38.4 0-14.464 5.824-28.288 16-38.528l65.856-60.928c-8-15.936-14.784-44.16-20.416-44.16h-92.8c-30.080 0-64-33.92-64-64v-128c0-30.080 33.92-64 64-64h92.8c5.632 0 12.416-28.224 20.416-44.096l-65.728-63.36c-21.248-21.248-21.248-54.464 0-75.712l90.496-89.92c10.624-10.624 24.576-15.616 38.528-15.616 13.888 0 27.84 5.44 38.464 16.064l60.928 65.856c15.872-8.064 44.096-14.784 44.096-20.416v-92.8c0-30.080 33.92-64 64-64h128c30.080 0 64 33.92 64 64v92.8c0 5.632 28.224 12.416 44.16 20.416l63.36-65.728c10.624-10.624 23.36-15.936 37.248-15.936 13.952 0 27.264 5.312 37.888 15.936l90.176 90.496c21.248 21.248 21.12 55.68-0.128 76.928l-65.856 60.928c8 15.936 14.72 44.16 20.352 44.16h92.8c30.080 0 64 33.92 64 64v128c0 30.080-33.92 64-64 64zM512 260.8c-103.232 0-187.2 83.968-187.2 187.2s83.968 187.2 187.2 187.2 187.2-83.968 187.2-187.2c0-103.232-83.968-187.2-187.2-187.2z" />
<glyph unicode="&#xe916;" glyph-name="alarm" d="M640 64c0-70.656-57.344-128-128-128-70.72 0-128 57.344-128 128h256zM908.288 260.608c-70.912 49.856-71.872 268.608-92.608 393.216-18.816 112.896-103.68 167.488-174.464 178.176h-1.216v1.28c0 69.952-56.768 126.72-126.784 126.72h-2.496c-69.952 0-126.72-56.768-126.72-126.72v-1.28h-1.28c-70.72-10.688-155.584-65.28-174.4-178.176-20.736-124.608-21.696-343.296-92.608-393.216-29.824-20.928-51.712-51.136-51.712-87.616v-44.992h896v44.992c0 36.48-21.888 66.688-51.712 87.616z" />
<glyph unicode="&#xe917;" glyph-name="photo" d="M960 704h-64v64h-128v-64h-64v128c0 35.328-28.672 64-64 64h-256c-35.328 0-64-28.672-64-64v-128h-64c0 35.328-28.672 64-64 64h-128c-35.328 0-64-28.672-64-64v-704c0-35.328 28.672-64 64-64h576c35.328 0 64 28.672 64 64h256c35.328 0 64 28.672 64 64v576c0 35.328-28.672 64-64 64zM448 832h128v-64h-128v64zM512 128c-141.376 0-256 114.624-256 256s114.624 256 256 256 256-114.624 256-256c0-141.376-114.624-256-256-256zM640 384c0-70.692-57.308-128-128-128s-128 57.308-128 128c0 70.692 57.308 128 128 128s128-57.308 128-128z" />
<glyph unicode="&#xe918;" glyph-name="user" d="M768 672c0-159.058-128.942-288-288-288s-288 128.942-288 288c0 159.058 128.942 288 288 288s288-128.942 288-288zM480 320c-194.432 0-352-143.232-352-320v-64h704v64c0 176.768-157.568 320-352 320z" />
<glyph unicode="&#xe919;" glyph-name="group-2" d="M512 672c0-123.712-100.288-224-224-224s-224 100.288-224 224c0 123.712 100.288 224 224 224s224-100.288 224-224zM896 672c0-88.366-71.634-160-160-160s-160 71.634-160 160c0 88.366 71.634 160 160 160s160-71.634 160-160zM576 0h-576v128c0 141.376 114.624 256 256 256h64c141.376 0 256-114.624 256-256v-128zM1024 65.792h-512v126.208c0 141.376 114.624 256 256 256v0c141.376 0 256-114.624 256-256v-126.208z" />
<glyph unicode="&#xe91a;" glyph-name="add-user" d="M640 672c0-159.058-128.942-288-288-288s-288 128.942-288 288c0 159.058 128.942 288 288 288s288-128.942 288-288zM704-64h-704v32c0 194.432 157.568 352 352 352v0c194.432 0 352-157.568 352-352v-32zM1024 448h-128v128h-128v-128h-128v-128h128v-128h128v128h128z" />
<glyph unicode="&#xe91b;" glyph-name="remove-user" d="M640 672c0-159.058-128.942-288-288-288s-288 128.942-288 288c0 159.058 128.942 288 288 288s288-128.942 288-288zM704-64h-704v32c0 194.432 157.568 352 352 352v0c194.432 0 352-157.568 352-352v-32zM704 448h320v-128h-320v128z" />
<glyph unicode="&#xe91c;" glyph-name="github" d="M512 960c-282.752 0-512-229.248-512-512s229.248-512 512-512 512 229.248 512 512-229.248 512-512 512zM816.064 143.936c-39.488-39.488-85.376-70.464-136.576-92.16-12.992-5.504-39.488-10.304-39.488-14.464v76.736c0 40.32-13.952 70.016-41.6 89.024 17.344 1.664 33.28 4.032 47.68 6.976 14.464 2.944 29.76 7.36 46.016 12.992 16.192 5.632 30.592 12.352 43.456 20.16s25.088 17.984 36.992 30.528c11.84 12.48 21.76 26.688 29.76 42.496s14.336 34.816 19.008 57.024c4.672 22.208 6.976 46.528 6.976 73.216 0 51.712-16.896 95.68-50.496 132.032 15.296 40 13.696 83.52-4.992 130.496l-12.48 1.536c-8.64 1.088-24.256-2.688-46.72-11.008-22.528-8.32-47.744-22.016-75.84-41.024-39.68 11.008-80.832 16.512-123.52 16.512-43.008 0-84.032-5.504-123.008-16.512-17.6 12.032-34.368 21.952-50.176 29.824s-28.48 13.184-38.016 16c-9.536 2.816-18.304 4.608-26.496 5.248s-13.44 0.832-15.744 0.512c-2.304-0.32-4.032-0.64-4.992-1.024-18.688-47.36-20.352-90.816-4.992-130.496-33.664-36.352-50.496-80.32-50.496-132.032 0-26.688 2.304-51.072 6.976-73.28s11.008-41.088 19.008-57.024c8-15.872 17.92-30.080 29.76-42.496 11.776-12.48 24.192-22.656 36.992-30.528s27.328-14.528 43.52-20.16c16.192-5.632 31.488-9.984 46.080-12.992 14.528-3.008 27.712-5.312 45.056-6.976-27.392-18.752-43.712-48.384-43.712-89.088v-78.272c0 4.48-27.264 9.792-41.984 16-51.2 21.696-95.872 52.672-135.36 92.16s-69.824 85.504-91.52 136.704c-22.336 52.992-33.344 109.312-33.344 167.424s11.456 114.368 33.856 167.36c21.696 51.2 52.736 97.216 92.288 136.704 39.488 39.488 85.568 70.528 136.704 92.16 52.928 22.4 109.248 33.664 167.424 33.664 58.112 0 114.368-11.328 167.36-33.664 51.2-21.696 97.216-52.672 136.704-92.16s70.592-85.504 92.16-136.704c22.4-52.928 33.664-109.248 33.664-167.36s-11.328-114.368-33.664-167.36c-21.632-51.2-52.672-97.216-92.224-136.704v0z" />
</font>
</defs>
</svg>
